<?xml version="1.0" encoding="UTF-8"?>
<svg id="Layer_2" data-name="Layer 2" xmlns="http://www.w3.org/2000/svg" viewBox="0 0 549.38 212.02">
  <defs>
    <style>
      .cls-1 {
        fill: #fff;
        stroke-width: 0px;
      }
    </style>
  </defs>
  <g id="Layer_2-2" data-name="Layer 2">
    <g>
      <g>
        <g>
          <polygon class="cls-1" points="244.69 106.66 283.39 106.66 283.39 89.04 244.69 89.04 244.69 76.84 287.42 76.84 287.42 57.83 222.7 57.83 222.7 138.45 287.99 138.45 287.99 119.44 244.69 119.44 244.69 106.66"/>
          <polygon class="cls-1" points="360.88 118.87 321.85 118.87 321.85 57.83 299.51 57.83 299.51 138.45 360.88 138.45 360.88 118.87"/>
          <rect class="cls-1" x="370.89" y="57.83" width="22.45" height="80.61"/>
          <polygon class="cls-1" points="474.31 57.83 403.61 57.83 403.61 77.42 427.79 77.42 427.79 138.45 450.13 138.45 450.13 77.42 474.31 77.42 474.31 57.83"/>
          <polygon class="cls-1" points="506.08 119.44 506.08 106.66 544.78 106.66 544.78 89.04 506.08 89.04 506.08 76.84 548.81 76.84 548.81 57.83 484.09 57.83 484.09 138.45 549.38 138.45 549.38 119.44 506.08 119.44"/>
        </g>
        <g>
          <polygon class="cls-1" points="225.54 148.33 222.7 148.33 222.7 164.64 234.11 164.64 234.11 162.06 225.54 162.06 225.54 148.33"/>
          <polygon class="cls-1" points="246.75 157.69 254.94 157.69 254.94 155.11 246.75 155.11 246.75 150.91 255.98 150.91 255.98 148.33 243.92 148.33 243.92 164.64 256.1 164.64 256.1 162.06 246.75 162.06 246.75 157.69"/>
          <path class="cls-1" d="m273.91,158.03h4.17v3.06c-.49.38-1.08.66-1.74.9-.67.23-1.41.34-2.17.34-.84,0-1.6-.14-2.27-.45-.68-.29-1.26-.69-1.74-1.21-.49-.52-.86-1.12-1.12-1.85-.27-.71-.4-1.49-.4-2.33v-.04c0-.79.14-1.53.41-2.22.27-.71.65-1.31,1.12-1.84.47-.52,1.04-.94,1.68-1.25.65-.31,1.34-.47,2.08-.47.52,0,.98.04,1.42.13.42.08.81.2,1.18.35.36.15.69.33,1.02.55.32.21.65.45.96.71l1.82-2.17c-.42-.36-.85-.67-1.29-.95-.44-.26-.92-.49-1.41-.68-.51-.2-1.05-.34-1.62-.44-.58-.09-1.24-.15-1.95-.15-1.23,0-2.35.23-3.39.67-1.03.46-1.92,1.06-2.67,1.84-.75.76-1.33,1.66-1.74,2.68-.42,1.03-.63,2.12-.63,3.24v.05c0,1.2.21,2.3.61,3.32.4,1.02.97,1.9,1.72,2.66.73.74,1.62,1.33,2.66,1.77,1.04.43,2.2.64,3.48.64.7,0,1.4-.06,2.04-.2.66-.13,1.27-.32,1.83-.54.57-.23,1.1-.51,1.58-.81.5-.31.94-.65,1.34-.98v-6.85h-6.95v2.5Z"/>
          <path class="cls-1" d="m297.16,148.21l-7.17,16.43h2.93l1.68-3.94h7.71l1.65,3.94h3.03l-7.17-16.43h-2.66Zm-1.51,9.95l2.79-6.51,2.82,6.51h-5.61Z"/>
          <polygon class="cls-1" points="319.43 148.33 316.59 148.33 316.59 164.64 328 164.64 328 162.06 319.43 162.06 319.43 148.33"/>
          <polygon class="cls-1" points="359.61 156.04 354.65 148.33 351.61 148.33 351.61 164.64 354.45 164.64 354.45 152.99 359.55 160.63 359.64 160.63 364.79 152.94 364.79 164.64 367.62 164.64 367.62 148.33 364.58 148.33 359.61 156.04"/>
          <path class="cls-1" d="m384.39,148.21l-7.17,16.43h2.93l1.69-3.94h7.7l1.66,3.94h3.03l-7.18-16.43h-2.66Zm-1.51,9.95l2.8-6.51,2.81,6.51h-5.61Z"/>
          <path class="cls-1" d="m414.83,157.81c.48-.29.88-.64,1.22-1.06.35-.39.61-.88.81-1.41.2-.54.29-1.13.29-1.81v-.05c0-.7-.11-1.37-.34-1.95-.23-.59-.57-1.12-1.01-1.56-.54-.51-1.18-.92-1.98-1.21-.79-.29-1.7-.43-2.73-.43h-7.26v16.3h2.84v-5.68h3.6l4.02,5.68h3.38l-4.41-6.17c.57-.15,1.1-.38,1.57-.66Zm-8.16-1.39v-5.51h4.18c1.08,0,1.91.23,2.5.69.58.47.88,1.14.88,2.04v.04c0,.84-.3,1.51-.91,2-.6.5-1.42.74-2.46.74h-4.2Z"/>
          <polygon class="cls-1" points="441.58 148.33 438.06 148.33 430.3 156.53 430.3 148.33 427.46 148.33 427.46 164.64 430.3 164.64 430.3 159.9 432.85 157.3 438.41 164.64 441.89 164.64 434.8 155.34 441.58 148.33"/>
          <polygon class="cls-1" points="453.99 157.69 462.17 157.69 462.17 155.11 453.99 155.11 453.99 150.91 463.22 150.91 463.22 148.33 451.15 148.33 451.15 164.64 463.34 164.64 463.34 162.06 453.99 162.06 453.99 157.69"/>
          <polygon class="cls-1" points="472.39 150.98 477.57 150.98 477.57 164.64 480.44 164.64 480.44 150.98 485.63 150.98 485.63 148.33 472.39 148.33 472.39 150.98"/>
          <rect class="cls-1" x="495.62" y="148.33" width="2.84" height="16.3"/>
          <polygon class="cls-1" points="521.01 159.61 512.3 148.33 509.64 148.33 509.64 164.64 512.47 164.64 512.47 153.05 521.46 164.64 523.85 164.64 523.85 148.33 521.01 148.33 521.01 159.61"/>
          <path class="cls-1" d="m542.44,158.03h4.17v3.06c-.5.38-1.08.66-1.75.9s-1.4.34-2.17.34c-.83,0-1.59-.14-2.26-.45-.68-.29-1.27-.69-1.74-1.21-.49-.52-.88-1.12-1.12-1.85-.27-.71-.4-1.49-.4-2.33v-.04c0-.79.14-1.53.41-2.22.27-.71.65-1.31,1.12-1.84.47-.52,1.02-.94,1.68-1.25.65-.31,1.34-.47,2.08-.47.51,0,.98.04,1.41.13.42.08.82.2,1.17.35.37.15.7.33,1.02.55.33.21.65.45.96.71l1.82-2.17c-.42-.36-.84-.67-1.29-.95-.43-.26-.91-.49-1.41-.68-.51-.2-1.04-.34-1.62-.44-.59-.09-1.23-.15-1.95-.15-1.23,0-2.35.23-3.38.67-1.03.46-1.93,1.06-2.67,1.84-.75.76-1.34,1.66-1.75,2.68-.41,1.03-.63,2.12-.63,3.24v.05c0,1.2.21,2.3.61,3.32.41,1.02.97,1.9,1.71,2.66.75.74,1.63,1.33,2.68,1.77,1.04.43,2.19.64,3.48.64.7,0,1.4-.06,2.04-.2.66-.13,1.25-.32,1.84-.54.56-.23,1.09-.51,1.57-.81.49-.31.95-.65,1.34-.98v-6.85h-6.94v2.5Z"/>
        </g>
      </g>
      <g>
        <polygon class="cls-1" points="143.15 141.94 169.11 157.01 177.94 145.59 179.2 132.72 146.78 116.5 143.15 141.94"/>
        <polygon class="cls-1" points="148.09 107.33 180.43 120.26 185.06 73.16 152.13 79.12 148.09 107.33"/>
        <polygon class="cls-1" points="128.56 162.36 140.86 185.13 152.62 178.32 163.1 164.77 142.18 148.65 128.56 162.36"/>
        <polygon class="cls-1" points="103.26 187.7 94.37 187.7 85.48 187.7 67.65 169.8 56.58 190.16 80.33 203.9 94.37 212.02 108.41 203.9 132.16 190.16 121.1 169.8 103.26 187.7"/>
        <polygon class="cls-1" points="41.96 116.5 9.54 132.72 10.81 145.59 19.64 157.01 45.59 141.94 41.96 116.5"/>
        <polygon class="cls-1" points="36.61 79.12 3.68 73.16 8.32 120.26 40.65 107.33 36.61 79.12"/>
        <polygon class="cls-1" points="46.57 148.65 25.64 164.77 36.12 178.32 47.89 185.13 60.18 162.36 46.57 148.65"/>
        <polygon class="cls-1" points="159.66 24.7 148.75 36.38 171.96 40.7 162.87 55.62 163.75 44 126.36 49 94.37 74.03 62.38 49 25 44 25.87 55.62 16.79 40.7 40 36.38 29.08 24.7 0 35.7 2.6 62.17 38.37 73.25 51.75 63.21 38.14 57.98 39.56 66.93 32.16 59.9 32.51 51.79 53.33 55.5 61.16 62.88 47.91 75.31 52.95 85.89 74.92 96.17 77.62 114.04 73.13 105.83 56.97 95.89 48.14 106.54 57.41 127.43 61.6 122.29 71.93 120.03 54.57 144.6 55.65 145.68 71.06 137.87 58.01 148.05 59.96 150.01 76.37 142.43 62.31 152.36 64.13 154.2 87.96 151.26 91.23 142.62 75.97 134.38 78.62 120.65 80.01 129.83 94.37 134.8 108.74 129.83 110.12 120.65 112.78 134.38 97.51 142.62 100.79 151.26 124.61 154.2 126.44 152.36 112.37 142.43 128.79 150.01 130.74 148.05 117.69 137.87 133.09 145.68 134.17 144.6 116.82 120.03 127.15 122.29 131.34 127.43 140.61 106.54 131.78 95.89 115.62 105.83 111.12 114.04 113.82 96.17 135.8 85.89 140.84 75.31 127.58 62.88 135.42 55.5 156.24 51.79 156.59 59.9 149.18 66.93 150.6 57.98 137 63.21 150.38 73.25 186.14 62.17 188.75 35.7 159.66 24.7"/>
        <polygon class="cls-1" points="68.44 40.85 94.37 62.17 120.3 40.85 140.73 35.48 152.61 22.03 126.63 12.2 112.06 23.26 105.37 39.37 106.5 22.75 114.8 7.73 94.37 0 73.95 7.73 82.25 22.75 83.37 39.37 76.68 23.26 62.11 12.2 36.14 22.03 48.02 35.48 68.44 40.85"/>
        <polygon class="cls-1" points="115.47 162.07 109.78 157.53 94.37 154.97 78.96 157.53 73.28 162.07 82.87 172.68 105.88 172.68 115.47 162.07"/>
      </g>
    </g>
  </g>
</svg>
